<?xml version="1.0" standalone="no"?>
<!DOCTYPE svg PUBLIC "-//W3C//DTD SVG 20010904//EN"
 "http://www.w3.org/TR/2001/REC-SVG-20010904/DTD/svg10.dtd">
<svg version="1.0" xmlns="http://www.w3.org/2000/svg"
 width="281.000000pt" height="238.000000pt" viewBox="0 0 281.000000 238.000000"
 preserveAspectRatio="xMidYMid meet">

<g transform="translate(0.000000,238.000000) scale(0.100000,-0.100000)"
fill="#000000" stroke="none">
<path d="M640 1840 c-13 -8 -15 -77 -15 -520 0 -589 -9 -540 102 -540 l63 0 0
35 0 35 -50 0 -50 0 0 464 0 464 483 4 c353 3 487 1 499 -7 10 -7 99 -97 198
-201 l180 -189 0 -267 0 -268 -441 0 -441 0 -39 44 c-47 53 -91 70 -166 64
-84 -7 -145 -66 -158 -153 -10 -61 2 -102 42 -146 57 -63 145 -79 221 -40 50
26 80 63 95 118 l11 43 476 1 c261 0 493 3 515 7 l40 7 3 90 c1 50 -2 108 -7
130 -8 34 -9 24 -10 -62 l-1 -103 -50 0 -50 0 0 273 0 272 -216 228 -215 227
-502 0 c-299 0 -508 -4 -517 -10z m398 -925 c83 -34 115 -129 69 -208 -75
-128 -267 -76 -267 73 0 57 27 103 77 129 46 25 71 26 121 6z"/>
<path d="M1245 1705 c-22 -8 -56 -32 -76 -54 -23 -26 -46 -41 -60 -41 -39 -1
-105 -36 -129 -69 -45 -64 -35 -158 21 -206 47 -39 72 -31 28 8 -44 39 -59 65
-59 107 0 71 47 120 127 131 33 5 59 14 62 21 9 29 72 76 116 87 40 10 52 9
88 -7 49 -22 68 -42 93 -97 17 -35 24 -40 63 -47 49 -8 66 -20 87 -59 27 -53
19 -88 -32 -136 -48 -44 -45 -56 6 -27 61 37 80 129 38 191 -23 32 -46 45
-100 57 -18 4 -33 18 -44 41 -21 46 -74 91 -121 104 -48 14 -59 13 -108 -4z"/>
<path d="M1257 1393 c-4 -3 -7 -14 -7 -24 0 -26 -17 -33 -51 -18 -28 11 -33
10 -55 -13 -22 -22 -24 -28 -13 -51 14 -32 6 -57 -19 -57 -11 0 -25 -7 -32
-15 -8 -10 -30 -15 -61 -15 l-49 0 0 39 c0 22 -4 43 -10 46 -6 4 -10 -15 -10
-49 l0 -56 51 0 c39 0 62 -7 95 -27 46 -30 51 -42 32 -73 -10 -16 -9 -23 7
-40 16 -18 27 -21 61 -15 39 6 43 4 56 -22 10 -21 22 -29 46 -31 29 -3 34 0
43 28 11 29 13 31 53 25 34 -6 45 -3 60 14 17 19 18 24 6 46 -11 20 -11 27 0
40 7 8 18 15 24 15 6 0 19 9 29 20 13 16 29 20 77 20 l60 0 0 49 c0 50 -13 74
-24 45 -3 -9 -6 -29 -6 -45 0 -28 -1 -29 -50 -29 -36 0 -52 4 -56 15 -4 8 -14
15 -24 15 -30 0 -42 24 -28 54 10 24 9 30 -15 53 -24 24 -29 25 -51 14 -28
-15 -44 -9 -56 25 -8 19 -17 24 -43 24 -19 0 -37 -3 -40 -7z m63 -38 c13 -35
57 -51 80 -30 15 14 18 14 30 0 11 -13 11 -20 0 -39 -15 -29 0 -63 36 -76 31
-12 33 -47 2 -52 -31 -4 -50 -44 -35 -75 15 -33 -2 -48 -36 -32 -22 10 -31 9
-52 -5 -14 -9 -25 -25 -25 -36 0 -32 -36 -25 -48 10 -12 34 -49 48 -82 30 -31
-16 -44 0 -29 33 16 35 -1 74 -33 79 -31 4 -32 42 0 46 31 5 44 34 36 82 -7
42 8 54 34 28 17 -17 60 5 72 37 12 32 38 32 50 0z"/>
<path d="M1263 1275 c-76 -32 -83 -117 -15 -172 48 -39 142 12 142 76 0 56
-23 86 -81 104 -8 3 -29 -1 -46 -8z m82 -40 c50 -49 17 -119 -52 -113 -25 2
-42 11 -56 30 -18 24 -18 30 -7 58 23 55 75 66 115 25z"/>
<path d="M432 383 c-48 -76 -49 -78 -26 -81 12 -2 32 2 43 7 26 14 114 14 128
0 6 -6 23 -9 37 -7 l27 3 -41 65 c-76 119 -98 121 -168 13z m95 2 c7 -20 -2
-29 -21 -22 -9 4 -13 13 -10 22 8 19 23 19 31 0z"/>
<path d="M656 445 c-3 -9 -3 -36 1 -61 8 -60 38 -84 105 -84 70 0 98 29 98
105 l0 55 -35 0 -34 0 -3 -57 c-3 -51 -6 -58 -25 -61 -27 -4 -43 28 -43 84 0
31 -3 34 -29 34 -17 0 -31 -6 -35 -15z"/>
<path d="M880 441 c0 -14 8 -21 28 -23 26 -3 27 -6 30 -60 l3 -58 34 0 34 0 3
57 c3 52 5 58 28 63 14 3 26 14 28 23 3 15 -7 17 -92 17 -88 0 -96 -2 -96 -19z"/>
<path d="M1115 435 c-31 -30 -34 -84 -6 -109 36 -33 143 -33 176 0 16 16 20
80 7 101 -12 18 -59 33 -108 33 -34 0 -51 -6 -69 -25z m106 -25 c34 -19 18
-70 -22 -70 -18 0 -49 25 -49 40 0 12 29 40 41 40 6 0 19 -5 30 -10z"/>
<path d="M1356 435 c-31 -29 -34 -72 -8 -105 24 -30 103 -38 155 -17 58 25 48
41 -22 34 -47 -5 -63 -3 -75 9 -20 20 -20 29 0 49 11 10 25 14 38 10 12 -3 38
-9 59 -12 30 -5 37 -3 37 11 0 23 -58 46 -113 46 -33 0 -51 -6 -71 -25z"/>
<path d="M1637 423 c-13 -21 -37 -58 -52 -82 l-27 -43 39 6 c88 16 136 18 158
6 12 -6 32 -10 44 -8 21 3 19 7 -24 73 -25 38 -51 73 -58 77 -27 17 -55 7 -80
-29z m73 -49 c0 -14 -21 -19 -32 -8 -3 3 -4 14 -1 25 4 15 8 17 19 8 8 -6 14
-18 14 -25z"/>
<path d="M1846 444 c-3 -9 -6 -45 -6 -80 l0 -64 35 0 c34 0 35 1 35 40 0 22 3
40 8 40 4 0 17 -18 30 -40 34 -59 69 -52 110 23 l17 32 3 -47 c3 -46 5 -48 33
-48 l29 0 0 80 0 80 -38 0 c-35 0 -40 -4 -71 -55 -18 -30 -35 -55 -36 -55 -1
0 -19 25 -39 55 -32 49 -40 55 -70 55 -22 0 -36 -6 -40 -16z"/>
<path d="M2180 381 l0 -81 29 0 c23 0 30 5 33 23 3 19 11 23 58 27 93 9 126
44 80 85 -16 15 -42 20 -110 23 l-90 4 0 -81z m134 33 c25 -10 8 -24 -30 -24
-32 0 -42 8 -27 23 8 9 36 9 57 1z"/>
</g>
</svg>
